<?xml version="1.0" standalone="no"?><!DOCTYPE svg PUBLIC "-//W3C//DTD SVG 1.1//EN" "http://www.w3.org/Graphics/SVG/1.1/DTD/svg11.dtd"><svg t="1610424946716" class="icon" viewBox="0 0 1024 1024" version="1.1" xmlns="http://www.w3.org/2000/svg" p-id="2034" xmlns:xlink="http://www.w3.org/1999/xlink" width="64" height="64"><defs><style type="text/css"></style></defs><path d="M509.1 648.9h-1.6c-54.7-0.4-104.5-22.2-140.1-61.4-14.4-15.8-13.2-40.2 2.6-54.6 15.8-14.4 40.2-13.2 54.6 2.6 44.1 48.5 123.7 48.1 177.4-0.8 15.8-14.4 40.2-13.2 54.6 2.6 14.4 15.8 13.2 40.2-2.6 54.6-40.5 36.8-91.9 57-144.9 57z" fill="#7c44e2" p-id="2035"></path><path d="M912 477.2c0-220.9-179.1-400-400-400-220.8 0-399.9 179-400 399.8v0.2c0.1 22 18 39.8 40 39.8h120c22.1 0 40-17.9 40-40s-17.9-40-40-40h-77.5c3.6-29 11.2-57.3 22.6-84.4 16.1-38.1 39.2-72.3 68.6-101.7s63.6-52.5 101.7-68.6c39.4-16.7 81.3-25.1 124.5-25.1s85.1 8.4 124.5 25.1c38.1 16.1 72.3 39.2 101.7 68.6s52.5 63.6 68.6 101.7C823.6 392 832 433.9 832 477.2s-8.4 85.1-25.1 124.5c-16.1 38.1-39.2 72.3-68.6 101.7s-63.6 52.5-101.7 68.6c-1.9 0.8-3.7 1.6-5.6 2.3-17.9-17.1-42.2-27.5-68.9-27.5H462c-55.2 0-100 44.8-100 100s44.8 100 100 100h100c54.8 0 99.3-44.1 100-98.8 146.6-59.3 250-203 250-370.8zM562 866.8H462c-11 0-20-9-20-20s9-20 20-20h100c11 0 20 9 20 20 0 11.1-9 20-20 20z" fill="#4a5fe2" p-id="2036"></path></svg>